<?xml version="1.0" standalone="no"?><!DOCTYPE svg PUBLIC "-//W3C//DTD SVG 1.1//EN" "http://www.w3.org/Graphics/SVG/1.1/DTD/svg11.dtd"><svg t="1597499472482" class="icon" viewBox="0 0 1282 1024" version="1.1" xmlns="http://www.w3.org/2000/svg" p-id="4116" xmlns:xlink="http://www.w3.org/1999/xlink" width="80.125" height="64"><defs><style type="text/css">* { text-shadow: transparent 0px 0px 0px, rgba(0, 0, 0, 0.68) 0px 0px 0px !important; }
</style></defs><path d="M0 839.234783a641.113043 184.765217 0 1 0 1282.226087 0 641.113043 184.765217 0 1 0-1282.226087 0Z" fill="#DDE8EA" p-id="4117"></path><path d="M1257.73913 889.989565L810.295652 703.443478 178.086957 801.391304l426.073043 222.163479c12.02087 0 24.486957 0.445217 36.953043 0.445217 293.398261 0 540.493913-56.542609 616.626087-134.010435z" fill="#C2C9CC" p-id="4118"></path><path d="M445.217391 0L178.086957 178.086957 102.4 333.913043l249.321739-186.991304z" fill="#A87E3D" p-id="4119"></path><path d="M445.217391 0l445.217392 129.113043v623.304348l-445.217392-133.565217z" fill="#957C54" p-id="4120"></path><path d="M445.217391 0L178.086957 178.086957v623.304347l267.130434-178.086956z" fill="#826B48" p-id="4121"></path><path d="M758.205217 263.123478c-63.22087-85.926957-125.996522-143.805217-188.326956-173.634782-93.495652-44.521739-182.53913-31.610435-239.081739 0-37.843478 20.925217-67.673043 52.090435-89.043479 93.495652 97.057391 53.426087 166.511304 85.926957 207.916522 97.947826 62.330435 17.808696 129.113043 31.610435 155.826087 13.356522s62.330435-18.253913 71.234783-13.356522c5.787826 3.116522 32.946087-2.671304 81.474782-17.808696z" fill="#FDCF2B" p-id="4122"></path><path d="M178.086957 173.634783l445.217391 133.565217v623.304348L178.086957 796.93913z" fill="#C79D5B" p-id="4123"></path><path d="M178.086957 173.634783l445.217391 133.565217-44.521739 231.513043L106.852174 414.052174z" fill="#E0C192" p-id="4124"></path><path d="M890.434783 129.113043l-267.130435 178.086957v623.304348l267.130435-178.086957z" fill="#A87E3D" p-id="4125"></path><path d="M805.843478 186.991304l-62.330435 40.069566v623.304347l62.330435-40.069565z" fill="#B89257" p-id="4126"></path><path d="M890.434783 129.113043l-267.130435 178.086957 146.921739 146.921739 249.321739-186.991304z" fill="#E0B87A" p-id="4127"></path><path d="M251.547826 876.633043c-1.78087 16.918261 0.890435 26.713043 7.568696 30.274783 10.24 4.897391 20.034783 3.116522 40.514782-4.897391 20.034783-8.013913 50.309565-4.897391 70.789566-10.24 20.034783-4.897391 20.034783-30.274783 0-40.514783s-41.405217-4.897391-56.542609 0c-10.24 3.561739-20.48 6.678261-31.610435 10.24l-30.72 15.137391z" fill="#F7FFFF" p-id="4128"></path><path d="M405.147826 93.495652c97.947826 4.452174 182.53913 111.304348 186.991304 124.66087 4.006957 12.02087-17.808696 362.852174-17.808695 436.313043 0 6.678261-4.452174 17.808696-8.904348 22.26087-5.342609 5.342609-42.295652 32.055652-111.304348 80.13913-8.904348 3.116522-16.473043 1.335652-22.260869-4.452174s-8.904348-12.02087-8.904348-17.808695c11.130435-20.925217 21.370435-38.733913 31.165217-53.426087s21.370435-28.048696 35.617391-40.069566c-38.733913-85.926957-62.775652-150.038261-72.570434-191.443478-9.794783-41.405217-16.918261-85.926957-22.26087-133.565217-41.405217 201.683478-66.782609 323.673043-75.686956 365.078261s-17.808696 105.516522-26.713044 191.443478c-5.342609 3.116522-12.02087 4.452174-20.925217 4.452174s-16.473043-1.335652-22.26087-4.452174c-27.603478-186.991304-44.076522-319.22087-50.309565-396.243478-8.904348-115.756522-12.02087-240.417391 28.048696-298.295652s80.13913-89.043478 178.086956-84.591305z" fill="#35332E" p-id="4129"></path><path d="M400.695652 102.4c97.947826 4.452174 155.826087 93.495652 164.730435 124.66087s-8.904348 431.86087-8.904348 418.504347-4.452174 17.808696-8.904348 22.26087c-5.342609 5.342609-39.624348 33.391304-102.4 84.591304-3.116522 5.787826-7.568696 5.787826-13.356521 0s-8.904348-12.02087-8.904348-17.808695c11.130435-20.925217 21.370435-38.733913 31.165217-53.426087s21.370435-28.048696 35.617391-40.069566c-38.733913-85.926957-62.775652-150.038261-72.570434-191.443478-9.794783-41.405217-20.925217-87.707826-34.281739-138.017391-41.405217 201.683478-66.782609 323.673043-75.686957 365.078261s-16.473043 106.852174-22.26087 195.895652c0 3.116522-4.452174 4.452174-13.356521 4.452174s-16.473043-1.335652-22.26087-4.452174c-27.603478-186.991304-44.076522-319.22087-50.309565-396.243478-8.904348-115.756522-12.02087-240.417391 28.048696-298.295652s75.686957-80.13913 173.634782-75.686957z" fill="#454545" p-id="4130"></path><path d="M438.093913 865.947826c28.93913 1.335652 43.186087-15.582609 40.96-55.652174-0.890435-16.027826-14.692174-40.069565-19.589565-54.316522-7.568696-22.706087-18.69913-27.603478-29.829565-28.493913-8.904348-0.445217-22.706087 7.568696-19.589566 30.274783 1.335652 8.013913 3.561739 17.808696 2.226087 44.521739-2.226087 47.638261 13.801739 62.775652 25.822609 63.666087z" fill="#F2FFFF" p-id="4131"></path><path d="M698.991304 782.246957V850.365217l-13.356521 8.904348v-69.89913l-22.26087 12.020869 24.486957-53.426087 28.93913 24.486957-17.808696 9.794783z" fill="#865B33" p-id="4132"></path></svg>