<?xml version="1.0" standalone="no"?><!DOCTYPE svg PUBLIC "-//W3C//DTD SVG 1.1//EN" "http://www.w3.org/Graphics/SVG/1.1/DTD/svg11.dtd"><svg t="1597329352082" class="icon" viewBox="0 0 1024 1024" version="1.1" xmlns="http://www.w3.org/2000/svg" p-id="6644" xmlns:xlink="http://www.w3.org/1999/xlink" width="64" height="64"><defs><style type="text/css">* { text-shadow: transparent 0px 0px 0px, rgba(0, 0, 0, 0.68) 0px 0px 0px !important; }
</style></defs><path d="M950.028265 909.883963 719.194946 682.708963c60.437487-65.691141 97.567129-152.531975 97.567129-248.106728 0-204.440206-168.403454-370.183064-376.158149-370.183064-207.743438 0-376.161219 165.742858-376.161219 370.183064s168.416757 370.155435 376.161219 370.155435c89.76135 0 172.10066-31.028691 236.752122-82.665745l231.747131 228.049926c11.31265 11.133571 29.625738 11.133571 40.925085 0C961.327612 939.031816 961.327612 920.992975 950.028265 909.883963zM440.60495 747.827053c-175.786609 0-318.28916-140.252301-318.28916-313.224818 0-173.000146 142.502551-313.224818 318.28916-313.224818 175.783539 0 318.300416 140.224672 318.300416 313.224818C758.904343 607.574752 616.388489 747.827053 440.60495 747.827053z" p-id="6645" fill="#9d9d9d"></path></svg>