<?xml version="1.0" standalone="no"?><!DOCTYPE svg PUBLIC "-//W3C//DTD SVG 1.1//EN" "http://www.w3.org/Graphics/SVG/1.1/DTD/svg11.dtd"><svg t="1598364118029" class="icon" viewBox="0 0 1024 1024" version="1.1" xmlns="http://www.w3.org/2000/svg" p-id="3283" xmlns:xlink="http://www.w3.org/1999/xlink" width="64" height="64"><defs><style type="text/css">* { text-shadow: transparent 0px 0px 0px, rgba(0, 0, 0, 0.68) 0px 0px 0px !important; }
</style></defs><path d="M520.469333 408.021333c0-9.130667-0.277333-18.261333 0.106667-27.392 0.256-5.888-0.789333-11.797333-0.064-17.6 0.576-4.522667-0.426667-8.576-1.706667-12.714666-0.277333-0.917333-0.490667-1.898667-1.237333-2.474667-3.562667-2.709333-5.909333-6.549333-9.216-9.472a15.221333 15.221333 0 0 1-3.328-4.16c-1.92-3.541333-5.248-6.037333-7.168-9.578667-0.277333-0.512-1.066667-0.789333-1.664-1.109333-0.682667-0.362667-1.685333-0.576-1.813333-1.301333-0.746667-3.776-4.288-5.397333-6.442667-7.957334-2.410667-2.858667-4.8-5.952-7.765333-8.384-3.712-3.029333-3.157333-4.8-2.133334-9.152 0.192-0.853333 0.917333-1.173333 1.664-1.429333 1.301333-0.448 2.688-0.704 3.861334-1.344 8.149333-4.458667 15.701333-1.813333 22.976 2.133333 9.109333 4.928 16.149333 12.266667 22.250666 20.48 7.637333 10.261333 13.717333 21.397333 17.749334 33.578667 3.541333 10.709333 8.106667 21.013333 12.373333 31.424 2.773333 6.762667 6.592 12.906667 11.648 18.24 1.066667 1.130667 1.621333 2.346667 1.557333 3.904-0.085333 1.770667 0.533333 3.392 1.258667 4.906667 0.853333 1.834667 2.261333 2.773333 4.522667 2.261333 3.072-0.704 6.272-0.938667 8.405333-3.754667 0.32-0.426667 1.024-0.618667 1.578667-0.768 6.250667-1.557333 12.224-3.925333 17.92-6.805333 16.213333-8.213333 33.472-10.112 51.285333-9.194667 4.266667 0.213333 8.512 0.597333 12.544 2.154667 6.229333 2.432 10.666667 10.581333 9.301333 17.109333-0.448 2.176-1.685333 3.904-3.285333 5.376-3.2 2.944-6.464 5.888-10.282667 8-9.557333 5.290667-19.114667 10.645333-29.589333 13.952-5.354667 1.685333-11.072 1.92-16.405333 3.861334-12.117333 4.416-24.149333 9.002667-34.858667 16.405333-7.701333 5.312-14.122667 11.84-18.858667 19.904-7.381333 12.586667-13.461333 25.706667-15.424 40.362667-1.152 8.576-0.362667 16.874667 3.776 24.64 0.981333 1.834667 0.810667 3.818667 0.661334 5.76-0.384 4.864 1.322667 7.210667 6.101333 6.954666 7.296-0.384 14.656 0.106667 21.845333-1.685333 0.661333-0.170667 1.365333-0.170667 2.026667-0.170667 22.634667-0.106667 44.842667-3.477333 66.88-8.533333 20.373333-4.672 40.789333-9.109333 61.376-12.8 1.002667-0.170667 2.026667-0.597333 3.008-0.533333 7.872 0.597333 15.04-3.2 22.826667-3.52 7.744-0.32 15.466667-1.301333 23.189333-2.026667 15.317333-1.450667 30.357333-4.714667 45.589333-6.570667 15.488-1.898667 31.104-2.922667 46.741334-2.112 14.016 0.704 24.213333 7.850667 31.381333 19.626667 1.6 2.624 3.157333 5.269333 5.802667 7.04 0.938667 0.618667 1.706667 1.664 1.792 2.730667 0.234667 3.029333 0.426667 6.101333 0.192 9.109333-0.128 1.664-1.6 2.645333-3.434667 2.24-1.877333-0.405333-3.733333-0.298667-5.610667-0.298667-17.749333 0.042667-35.498667-0.128-53.248 0.192-17.152 0.32-34.282667-0.490667-51.434666-0.042666-9.557333 0.256-19.093333 0.213333-28.650667 0.298666-4.074667 0.021333-8.021333 1.6-12.117333 1.408-7.082667-0.32-13.909333 1.92-20.992 1.962667-9.365333 0.064-18.965333-0.213333-28.053334 1.642667-12.586667 2.602667-25.536 2.773333-37.994666 6.506666-9.173333 2.752-18.432 5.482667-27.690667 8.021334-8.128 2.24-16.298667 4.949333-24 8.64-11.221333 5.376-22.272 11.072-33.002667 17.365333-5.589333 3.264-10.026667 7.914667-13.952 13.034667-1.664 2.154667-3.114667 4.48-5.461333 6.016-0.533333 0.362667-1.088 0.96-1.258667 1.557333-1.109333 3.882667-4.053333 6.485333-6.592 9.301333-9.834667 10.944-16.256 23.957333-22.848 36.885334-3.925333 7.68-7.616 15.466667-11.264 23.274666-8.426667 18.069333-18.837333 34.986667-29.482666 51.797334-2.922667 4.608-5.76 9.28-7.744 14.4-0.490667 1.28-1.386667 2.325333-2.261334 3.370666-2.837333 3.413333-2.176 7.552-0.106666 11.285334 2.133333 3.861333 5.034667 3.712 8.448 3.605333 4.032-0.128 8-0.362667 11.776-1.984 0.96-0.405333 2.026667-0.554667 3.029333-0.277333 3.306667 0.917333 6.4 0.128 9.536-0.853334 16.021333-5.056 31.637333-11.392 47.829333-15.914666 13.973333-3.882667 28.437333-6.037333 42.090667-10.965334 23.573333-8.490667 48.298667-11.221333 72.682667-15.765333 7.061333-1.322667 13.973333-3.157333 20.885333-5.034667 3.136-0.853333 7.168 2.410667 6.976 5.674667-0.042667 0.938667-0.426667 1.92-0.213333 2.794667 1.066667 4.672-1.301333 7.424-4.842667 9.984-10.624 7.68-21.866667 14.229333-33.856 19.52-10.474667 4.608-21.482667 7.658667-32.554667 10.410666-19.562667 4.885333-38.314667 12.373333-57.557333 18.282667-28.992 8.896-56.597333 20.949333-83.498667 34.837333-15.765333 8.149333-31.552 16.234667-47.36 24.32-5.333333 2.730667-10.837333 5.034667-16.810666 5.952-8.853333 1.365333-16.832-0.618667-23.658667-6.442666-4.672-3.989333-9.002667-8.362667-12.544-13.418667-0.853333-1.216-1.386667-2.474667-1.365333-4.032 0.085333-6.229333 0.149333-12.458667 0.064-18.666667-0.021333-2.453333 0.874667-4.224 2.709333-5.738666 3.008-2.517333 5.930667-5.12 8.874667-7.701334 0.384-0.341333 0.853333-0.661333 1.066666-1.088 2.026667-4.138667 5.866667-6.613333 9.173334-9.450666 3.392-2.944 5.973333-6.528 9.088-9.664 3.093333-3.093333 5.973333-6.378667 9.152-9.408 2.389333-2.261333 5.354667-4.394667 6.613333-8.085334 1.130667-3.328 3.84-6.144 6.442667-8.469333 2.709333-2.410667 4.565333-5.482667 6.805333-8.149333 2.24-2.688 4.522667-5.76 6.122667-8.981334 1.770667-3.562667 4.138667-6.677333 6.442666-9.749333 11.413333-15.082667 19.925333-31.722667 27.242667-49.045333 2.453333-5.845333 3.925333-11.968 5.504-18.090667 1.429333-5.504 2.026667-11.029333 2.218667-16.661333 0.192-5.376-1.237333-7.104-6.613334-6.912-9.429333 0.32-18.645333 1.685333-27.242666 5.994666-5.184 2.602667-10.730667 4.373333-16.234667 6.250667-34.709333 11.904-69.056 24.725333-102.976 38.72-24.128 9.962667-48.32 19.776-72.832 28.736a129.917867 129.917867 0 0 1-33.408 7.402667c-12.629333 1.088-23.424-3.392-32.554667-12.074667-3.306667-3.136-4.458667-7.552-6.762666-11.285333-0.533333-0.874667-0.213333-1.856 0.874666-2.304 0.618667-0.256 1.301333-0.64 1.941334-0.618667 7.616 0.149333 13.824-5.568 21.482666-5.184 12.544-4.053333 25.301333-7.445333 37.866667-11.413333 25.941333-8.192 51.029333-18.474667 75.349333-30.528 19.242667-9.536 39.317333-16.917333 59.413334-24.341334 18.730667-6.912 37.738667-13.098667 56.128-20.842666 14.016-5.909333 28.032-11.605333 42.752-15.573334 9.408-2.538667 18.218667-6.72 26.496-11.946666 0.064-0.042667 0.149333-0.106667 0.213333-0.128 6.016-1.472 6.698667-5.696 6.570667-11.136-0.32-14.4-0.362667-28.821333-0.021334-43.242667 0.192-8.192-0.149333-16.362667-0.149333-24.554667 0-5.12-1.386667-6.272-6.4-6.954666-5.738667-0.768-11.072 0-16.554667 1.792-7.68 2.496-15.786667 2.709333-23.786666 3.157333-19.605333 1.066667-39.210667 1.877333-58.837334 1.984-13.077333 0.085333-24.810667-3.968-34.432-13.290667-1.877333-1.813333-4.053333-3.221333-4.117333-6.336-0.042667-2.922667 0.96-4.373333 3.925333-4.352 13.653333 0.021333 27.306667 0.149333 40.938667-0.234666 4.16-0.128 8.085333-0.981333 12.010667-2.005334 2.261333-0.576 4.522667-0.725333 6.826666-0.768 17.173333-0.234667 34.304-1.066667 51.072-5.226666 8.64-2.154667 17.002667-5.141333 23.914667-11.114667 1.856-1.6 3.733333-3.178667 5.696-4.629333 2.368-1.770667 3.904-4.309333 4.928-7.466667 2.624-8.213333 1.834667-16.554667 2.005333-24.874667 0.085333-4.266667 0.021333-8.533333 0.021334-12.8 0.106667 0.128 0.170667 0.128 0.234666 0.128z" p-id="3284" fill="#1296db"></path><path d="M855.061333 849.045333c-1.045333 11.264-4.650667 23.850667-12.202666 35.093334-3.328 4.949333-4.714667 4.906667-8.576 0.256-4.373333-5.248-7.893333-11.114667-11.776-16.746667-8.810667-12.778667-17.557333-25.6-24.917334-39.296-6.016-11.178667-11.925333-22.442667-17.194666-33.984-9.408-20.608-20.117333-40.448-33.813334-58.624-5.696-7.552-10.282667-15.850667-14.592-24.298667-1.322667-2.624-3.392-4.693333-5.205333-6.933333-7.168-8.917333-14.506667-17.664-23.253333-25.130667-1.365333-1.173333-2.709333-2.325333-4.330667-3.157333-0.853333-0.426667-1.877333-0.917333-1.685333-2.005333 0.213333-1.152 1.472-0.96 2.325333-1.109334 3.733333-0.661333 7.274667 0.234667 10.773333 1.493334 8.576 3.093333 16.448 7.509333 23.765334 12.885333 16.298667 11.989333 32.704 24.085333 45.802666 39.552 20.437333 24.149333 40.618667 48.576 57.28 75.605333 6.016 9.749333 10.858667 20.096 15.082667 30.741334 1.770667 4.330667 2.56 8.853333 2.517333 15.658666zM589.525333 191.232c0.170667-3.712 0.32-7.125333 0.490667-10.517333 0.085333-1.578667 0.618667-3.008 1.536-4.288 1.578667-2.197333 3.370667-4.245333 3.605333-7.189334 0.106667-1.194667 1.109333-2.133333 2.368-2.432 1.6-0.362667 3.392-0.085333 4.266667-2.069333 0.234667-0.512 1.109333-0.128 1.685333 0.021333 9.109333 2.218667 18.197333 4.586667 27.050667 7.722667 11.285333 4.010667 15.850667 13.034667 18.112 23.786667 0.64 3.050667-0.597333 5.866667-2.048 8.533333-3.2 5.845333-8.106667 10.090667-13.354667 13.909333-3.370667 2.453333-6.933333 4.672-10.432 6.954667-1.365333 0.896-2.837333 1.578667-4.544 1.514667-1.28-0.042667-2.304 0.512-3.114666 1.472-1.898667 2.24-4.373333 3.114667-7.232 3.2-0.917333 0.021333-2.005333 0.106667-2.709334 0.597333-4.928 3.562667-10.837333 4.096-16.490666 4.949333-18.112 2.773333-34.944 9.770667-52.266667 15.168-6.357333 1.984-12.224 5.248-18.069333 8.405334-7.274667 3.904-14.954667 6.656-22.933334 8.576-6.144 1.472-12.202667 3.264-18.154666 5.312-1.941333 0.661333-3.818667 0.789333-5.696-0.149334-2.538667-1.258667-4.778667-2.965333-7.594667-3.882666-2.858667-0.917333-3.285333-4.352-1.045333-6.805334 5.312-5.824 11.370667-10.816 18.368-14.506666 5.056-2.645333 10.176-5.184 15.210666-7.872 6.208-3.285333 12.608-6.229333 18.986667-9.194667 1.28-0.597333 2.901333-0.448 4.181333-1.024 6.784-3.114667 13.461333-6.421333 20.629334-8.597333 2.986667-0.917333 5.632-3.370667 9.152-2.24 0.234667 0.085333 0.661333-0.192 0.896-0.405334 4.202667-4.16 10.005333-5.056 15.104-7.338666 3.242667-1.450667 6.784-2.282667 10.218666-3.285334 1.984-0.597333 3.882667-1.28 5.461334-2.666666 0.810667-0.704 1.728-1.066667 2.816-0.96 2.858667 0.298667 4.181333-1.386667 4.885333-3.84 1.024-3.648 0.341333-7.424 0.661333-10.858667z" p-id="3285" fill="#1296db"></path></svg>